<svg width="120" height="26" viewBox="0 0 120 26" fill="none" xmlns="http://www.w3.org/2000/svg">
<g clip-path="url(#clip0_1001_3132)">
<path d="M5.56666 7.87927C2.50409 7.87927 0 10.3533 0 13.3791C0 16.4049 2.50409 18.8789 5.56666 18.8789H6.7148V7.87927H5.56666Z" fill="#69BAE8"/>
<path d="M18.9963 7.87927H17.8481V18.8789H18.9963C22.0588 18.8789 24.5629 16.4049 24.5629 13.3791C24.5629 10.3533 22.0588 7.87927 18.9963 7.87927Z" fill="#485DAA"/>
<path d="M17.8481 6.74493C17.8481 3.71914 15.344 1.24512 12.2814 1.24512C9.21887 1.24512 6.71478 3.71914 6.71478 6.74493V7.87929H17.8481V6.74493Z" fill="#69BAE8"/>
<path d="M6.88623 21.335C7.49147 23.7243 9.68125 25.5131 12.2814 25.5131C15.344 25.5131 17.8481 23.0391 17.8481 20.0133V18.8789H9.37214L6.88623 21.335Z" fill="#485DAA"/>
<path d="M6.71478 7.87927V18.8789V20.0133C6.71478 20.4701 6.77712 20.9115 6.88622 21.335L9.37213 18.8789H17.8481V7.87927H6.71478Z" fill="#003A5D"/>
<path fill-rule="evenodd" clip-rule="evenodd" d="M98.336 0.234009C97.2358 0.234009 96.3352 1.09097 96.3352 2.17797C96.3352 3.29784 97.2358 4.12194 98.336 4.12194C99.4695 4.12194 100.37 3.29784 100.37 2.17797C100.37 1.09097 99.4695 0.234009 98.336 0.234009ZM99.971 6.65996H96.7011V20.5028H99.971V6.65996ZM89.9949 0.56265H93.2648V20.5028H89.9949V0.56265ZM46.6618 6.65996H48.7957L49.1949 8.63679H49.3945C50.4282 7.12004 51.7305 6.3288 54.0307 6.3288C56.3335 6.3288 58.035 7.25149 59.0021 8.83396H59.1685C60.1024 7.31722 61.4712 6.3288 63.971 6.3288C67.6068 6.3288 69.71 8.83397 69.71 12.5576V20.5003H66.4401V12.8533C66.4401 10.7451 65.3399 9.09687 63.1702 9.09687C60.9697 9.09687 59.9335 10.7122 59.8337 12.2289V20.5003H56.5714V12.5247C56.5714 10.5808 55.4047 9.09687 53.2682 9.09687C51.032 9.09687 50.0316 10.7779 49.9318 12.2289V20.5003H46.6618V6.65996ZM43.397 19.2515C43.397 19.2515 41.7953 20.8997 38.2593 20.8997C33.6896 20.8997 30.9211 17.8333 30.9211 13.6168C30.9211 9.43056 33.623 6.33386 37.7271 6.33386C41.7979 6.33386 44.0981 9.20052 44.0981 13.2224C44.0981 13.5182 44.0648 14.0794 44.0648 14.0794H34.1245C34.3241 16.8803 35.9923 18.2656 38.4614 18.2656C40.8307 18.2656 42.2303 17.0471 42.2303 17.0471L43.397 19.2515ZM34.2576 11.9332H40.8281C40.5953 9.9235 39.4951 8.83396 37.658 8.83396C35.8593 8.83649 34.6235 9.85777 34.2576 11.9332ZM76.3267 25.6446V18.8875V18.8849H76.4597C76.4597 18.8849 77.4269 20.8289 80.8964 20.8289C84.499 20.8289 87.3007 17.8965 87.3007 13.5789C87.3007 9.1626 84.4657 6.3288 80.7966 6.3288C77.1582 6.3288 75.8917 8.63679 75.8917 8.63679H75.6921L75.2239 6.65996H73.0567V25.6446H76.3267ZM84 13.5814C84 16.2837 82.3676 18.162 80.0981 18.162C77.8951 18.162 76.1604 16.448 76.1629 13.5814C76.1629 10.7476 77.8977 9.00081 80.0981 9.00081C82.365 9.00081 84 10.9119 84 13.5814ZM103.223 6.65996V5.47437C103.223 2.27656 105.058 0.332601 108.294 0.332601C110.262 0.332601 111.464 0.992386 111.464 0.992386L110.431 3.43182C110.431 3.43182 109.696 3.07033 108.629 3.07033C107.33 3.07033 106.496 3.92729 106.496 5.31259V6.66502H110.397V9.20304H106.49V20.5079H103.22V9.20304V6.65996H103.223ZM114.565 0.234009C113.465 0.234009 112.565 1.09097 112.565 2.17797C112.565 3.29784 113.465 4.12194 114.565 4.12194C115.699 4.12194 116.6 3.29784 116.6 2.17797C116.6 1.09097 115.699 0.234009 114.565 0.234009ZM116.203 6.65996H112.933V20.5028H116.203V6.65996Z" fill="white"/>
<path d="M118.772 0.448883H118.419V1.43477H118.176V0.448883H117.823V0.234009H118.774V0.448883H118.772ZM118.982 1.43477V0.236539H119.156L119.575 0.777512L120.01 0.236539H120.177V1.43477H119.928V0.699144L119.624 1.09097H119.532L119.227 0.699144V1.43477H118.982Z" fill="white"/>
</g>
<defs>
<clipPath id="clip0_1001_3132">
<rect width="120" height="25.5319" fill="white" transform="translate(0 0.234009)"/>
</clipPath>
</defs>
</svg>
