<svg width="18" height="18" viewBox="0 0 18 18" fill="none" xmlns="http://www.w3.org/2000/svg">
<path fill-rule="evenodd" clip-rule="evenodd" d="M2 4.5C2 3.11929 3.11929 2 4.5 2H5.5C6.88071 2 8 3.11929 8 4.5V13.5C8 14.8807 6.88071 16 5.5 16H4.5C3.11929 16 2 14.8807 2 13.5V4.5ZM4.5 3C3.67157 3 3 3.67157 3 4.5V13.5C3 14.3284 3.67157 15 4.5 15H5.5C6.32843 15 7 14.3284 7 13.5V4.5C7 3.67157 6.32843 3 5.5 3H4.5ZM13.3536 5.64645L16.7071 9L13.3536 12.3536L12.6464 11.6464L14.7929 9.5H10V8.5H14.7929L12.6464 6.35355L13.3536 5.64645Z" fill="#A3A3A3"/>
</svg>
