<svg width="120" height="26" viewBox="0 0 120 26" fill="none" xmlns="http://www.w3.org/2000/svg"><g clip-path="url(#a)"><path d="M5.567 7.88C2.504 7.88 0 10.352 0 13.38c0 3.025 2.504 5.499 5.567 5.499h1.148v-11H5.567Z" fill="#69BAE8"/><path d="M18.996 7.88h-1.148v10.999h1.148c3.063 0 5.567-2.474 5.567-5.5s-2.504-5.5-5.567-5.5Z" fill="#485DAA"/><path d="M17.848 6.745c0-3.026-2.504-5.5-5.567-5.5-3.062 0-5.566 2.474-5.566 5.5v1.134h11.133V6.745Z" fill="#69BAE8"/><path d="M6.886 21.335a5.573 5.573 0 0 0 5.395 4.178c3.063 0 5.567-2.474 5.567-5.5V18.88H9.372l-2.486 2.456Z" fill="#485DAA"/><path d="M6.715 7.88V20.012c0 .457.062.898.171 1.322l2.486-2.456h8.476v-11H6.715Z" fill="#003A5D"/><path fill-rule="evenodd" clip-rule="evenodd" d="M98.336.234c-1.1 0-2 .857-2 1.944 0 1.12.9 1.944 2 1.944 1.133 0 2.034-.824 2.034-1.944 0-1.087-.9-1.944-2.034-1.944Zm1.635 6.426h-3.27v13.843h3.27V6.66ZM89.995.563h3.27v19.94h-3.27V.563ZM46.662 6.66h2.134l.399 1.977h.2c1.033-1.517 2.335-2.308 4.636-2.308 2.303 0 4.004.922 4.971 2.505h.166c.934-1.517 2.303-2.505 4.803-2.505 3.636 0 5.739 2.505 5.739 6.229V20.5h-3.27v-7.647c0-2.108-1.1-3.756-3.27-3.756-2.2 0-3.236 1.615-3.336 3.132V20.5H56.57v-7.975c0-1.944-1.166-3.428-3.303-3.428-2.236 0-3.236 1.68-3.336 3.132V20.5h-3.27V6.66Zm-3.265 12.591S41.795 20.9 38.259 20.9c-4.57 0-7.338-3.067-7.338-7.283 0-4.186 2.702-7.283 6.806-7.283 4.07 0 6.371 2.867 6.371 6.888 0 .296-.033.857-.033.857h-9.94c.2 2.801 1.867 4.187 4.336 4.187 2.37 0 3.77-1.219 3.77-1.219l1.166 2.204Zm-9.14-7.318h6.571c-.233-2.01-1.333-3.099-3.17-3.099-1.799.002-3.035 1.024-3.4 3.1Zm42.07 13.712v-6.76h.133s.967 1.944 4.436 1.944c3.603 0 6.405-2.933 6.405-7.25 0-4.416-2.835-7.25-6.504-7.25-3.639 0-4.905 2.308-4.905 2.308h-.2l-.468-1.977h-2.167v18.985h3.27ZM84 13.58c0 2.703-1.632 4.581-3.902 4.581-2.203 0-3.938-1.714-3.935-4.58 0-2.834 1.735-4.581 3.935-4.581C82.365 9 84 10.91 84 13.58Zm19.223-6.921V5.474c0-3.197 1.835-5.141 5.071-5.141 1.968 0 3.17.66 3.17.66l-1.033 2.439s-.735-.362-1.802-.362c-1.299 0-2.133.857-2.133 2.243v1.352h3.901v2.538h-3.907v11.305h-3.27V6.66h.003ZM114.565.234c-1.1 0-2 .857-2 1.944 0 1.12.9 1.944 2 1.944 1.134 0 2.035-.824 2.035-1.944 0-1.087-.901-1.944-2.035-1.944Zm1.638 6.426h-3.27v13.843h3.27V6.66Z" fill="#fff"/><path d="M118.772.449h-.353v.986h-.243V.449h-.353V.234h.951v.215h-.002Zm.21.986V.237h.174l.419.54.435-.54h.167v1.198h-.249V.699l-.304.392h-.092l-.305-.392v.736h-.245Z" fill="#fff"/></g><defs><clipPath id="a"><path fill="#fff" transform="translate(0 .234)" d="M0 0h120v25.532H0z"/></clipPath></defs></svg>